<svg xmlns="http://www.w3.org/2000/svg"  viewBox="0 0 24 24" width="24px" height="24px" baseProfile="basic"><path fill="#039be5" d="M21.56,20.85l-0.71,0.71c-0.58,0.59-1.53,0.59-2.12,0l-2.76-2.77c-0.57-0.56-1.44-0.77-2.18-0.46	c-1.38,0.59-2.95,0.82-4.61,0.57c-3.59-0.55-6.5-3.42-7.07-7.01c-0.91-5.78,4-10.69,9.78-9.78c3.59,0.57,6.46,3.48,7.01,7.07	c0.25,1.66,0.02,3.23-0.57,4.61c-0.31,0.74-0.1,1.61,0.46,2.18l2.77,2.76C22.15,19.32,22.15,20.27,21.56,20.85z"/><circle cx="10.5" cy="10.5" r="6.5" fill="#a9e2fc"/></svg>